<mxfile host="app.diagrams.net" agent="Mozilla/5.0 (Windows NT 10.0; Win64; x64) AppleWebKit/537.36 (KHTML, like Gecko) Chrome/134.0.0.0 Safari/537.36" version="26.1.3">
  <diagram name="Pagina-1" id="gUakb1eG00iQR8x7TaLS">
    <mxGraphModel dx="2062" dy="1895" grid="1" gridSize="10" guides="1" tooltips="1" connect="1" arrows="1" fold="1" page="1" pageScale="1" pageWidth="827" pageHeight="1169" math="0" shadow="0">
      <root>
        <mxCell id="0" />
        <mxCell id="1" parent="0" />
        <mxCell id="voZhsEm-r_xCfaCIF_3K-1" value="Pubblicazione" style="swimlane;fontStyle=0;childLayout=stackLayout;horizontal=1;startSize=30;horizontalStack=0;resizeParent=1;resizeParentMax=0;resizeLast=0;collapsible=1;marginBottom=0;whiteSpace=wrap;html=1;" parent="1" vertex="1">
          <mxGeometry x="-800" y="-780" width="160" height="110" as="geometry" />
        </mxCell>
        <mxCell id="voZhsEm-r_xCfaCIF_3K-2" value="&lt;font style=&quot;font-size: 10px;&quot;&gt;+ Titolo: String&lt;/font&gt;" style="text;strokeColor=none;fillColor=none;align=left;verticalAlign=middle;spacingLeft=4;spacingRight=4;overflow=hidden;points=[[0,0.5],[1,0.5]];portConstraint=eastwest;rotatable=0;whiteSpace=wrap;html=1;" parent="voZhsEm-r_xCfaCIF_3K-1" vertex="1">
          <mxGeometry y="30" width="160" height="20" as="geometry" />
        </mxCell>
        <mxCell id="voZhsEm-r_xCfaCIF_3K-4" value="&lt;font style=&quot;font-size: 10px;&quot;&gt;+ Anno: Int&lt;/font&gt;" style="text;strokeColor=none;fillColor=none;align=left;verticalAlign=middle;spacingLeft=4;spacingRight=4;overflow=hidden;points=[[0,0.5],[1,0.5]];portConstraint=eastwest;rotatable=0;whiteSpace=wrap;html=1;" parent="voZhsEm-r_xCfaCIF_3K-1" vertex="1">
          <mxGeometry y="50" width="160" height="20" as="geometry" />
        </mxCell>
        <mxCell id="voZhsEm-r_xCfaCIF_3K-3" value="&lt;font style=&quot;font-size: 10px;&quot;&gt;+ Autore: Autore&lt;/font&gt;" style="text;strokeColor=none;fillColor=none;align=left;verticalAlign=middle;spacingLeft=4;spacingRight=4;overflow=hidden;points=[[0,0.5],[1,0.5]];portConstraint=eastwest;rotatable=0;whiteSpace=wrap;html=1;" parent="voZhsEm-r_xCfaCIF_3K-1" vertex="1">
          <mxGeometry y="70" width="160" height="20" as="geometry" />
        </mxCell>
        <mxCell id="jsHb7b36GZ4GkRZqTDLe-23" value="&lt;font style=&quot;font-size: 10px;&quot;&gt;+ Editore: Editore&lt;/font&gt;" style="text;strokeColor=none;fillColor=none;align=left;verticalAlign=middle;spacingLeft=4;spacingRight=4;overflow=hidden;points=[[0,0.5],[1,0.5]];portConstraint=eastwest;rotatable=0;whiteSpace=wrap;html=1;" parent="voZhsEm-r_xCfaCIF_3K-1" vertex="1">
          <mxGeometry y="90" width="160" height="20" as="geometry" />
        </mxCell>
        <mxCell id="jsHb7b36GZ4GkRZqTDLe-57" style="edgeStyle=orthogonalEdgeStyle;rounded=0;orthogonalLoop=1;jettySize=auto;html=1;fontSize=12;startSize=8;endSize=8;endArrow=none;startFill=0;" parent="1" source="voZhsEm-r_xCfaCIF_3K-10" target="voZhsEm-r_xCfaCIF_3K-1" edge="1">
          <mxGeometry relative="1" as="geometry" />
        </mxCell>
        <mxCell id="LyLU5Vvw4hms6EyPSJXu-3" value="1..n" style="edgeLabel;html=1;align=center;verticalAlign=middle;resizable=0;points=[];" vertex="1" connectable="0" parent="jsHb7b36GZ4GkRZqTDLe-57">
          <mxGeometry x="0.9425" relative="1" as="geometry">
            <mxPoint x="5" y="-9" as="offset" />
          </mxGeometry>
        </mxCell>
        <mxCell id="LyLU5Vvw4hms6EyPSJXu-4" value="1..n" style="edgeLabel;html=1;align=center;verticalAlign=middle;resizable=0;points=[];" vertex="1" connectable="0" parent="jsHb7b36GZ4GkRZqTDLe-57">
          <mxGeometry x="-0.8951" relative="1" as="geometry">
            <mxPoint x="1" y="-8" as="offset" />
          </mxGeometry>
        </mxCell>
        <mxCell id="voZhsEm-r_xCfaCIF_3K-10" value="Autore" style="swimlane;fontStyle=0;childLayout=stackLayout;horizontal=1;startSize=30;horizontalStack=0;resizeParent=1;resizeParentMax=0;resizeLast=0;collapsible=1;marginBottom=0;whiteSpace=wrap;html=1;" parent="1" vertex="1">
          <mxGeometry x="-380" y="-770" width="140" height="90" as="geometry" />
        </mxCell>
        <mxCell id="voZhsEm-r_xCfaCIF_3K-11" value="&lt;font style=&quot;font-size: 10px;&quot;&gt;+ Nome: String&lt;/font&gt;" style="text;strokeColor=none;fillColor=none;align=left;verticalAlign=middle;spacingLeft=4;spacingRight=4;overflow=hidden;points=[[0,0.5],[1,0.5]];portConstraint=eastwest;rotatable=0;whiteSpace=wrap;html=1;" parent="voZhsEm-r_xCfaCIF_3K-10" vertex="1">
          <mxGeometry y="30" width="140" height="20" as="geometry" />
        </mxCell>
        <mxCell id="voZhsEm-r_xCfaCIF_3K-12" value="&lt;font style=&quot;font-size: 10px;&quot;&gt;+ Cognome: String&lt;/font&gt;" style="text;strokeColor=none;fillColor=none;align=left;verticalAlign=middle;spacingLeft=4;spacingRight=4;overflow=hidden;points=[[0,0.5],[1,0.5]];portConstraint=eastwest;rotatable=0;whiteSpace=wrap;html=1;" parent="voZhsEm-r_xCfaCIF_3K-10" vertex="1">
          <mxGeometry y="50" width="140" height="20" as="geometry" />
        </mxCell>
        <mxCell id="voZhsEm-r_xCfaCIF_3K-13" value="&lt;font style=&quot;font-size: 10px;&quot;&gt;+ Anno di nascita: Int&lt;/font&gt;" style="text;strokeColor=none;fillColor=none;align=left;verticalAlign=middle;spacingLeft=4;spacingRight=4;overflow=hidden;points=[[0,0.5],[1,0.5]];portConstraint=eastwest;rotatable=0;whiteSpace=wrap;html=1;" parent="voZhsEm-r_xCfaCIF_3K-10" vertex="1">
          <mxGeometry y="70" width="140" height="20" as="geometry" />
        </mxCell>
        <mxCell id="jsHb7b36GZ4GkRZqTDLe-11" style="edgeStyle=orthogonalEdgeStyle;rounded=0;orthogonalLoop=1;jettySize=auto;html=1;fontSize=12;startSize=8;endSize=8;endArrow=none;startFill=0;" parent="1" source="voZhsEm-r_xCfaCIF_3K-14" target="voZhsEm-r_xCfaCIF_3K-42" edge="1">
          <mxGeometry relative="1" as="geometry" />
        </mxCell>
        <mxCell id="LyLU5Vvw4hms6EyPSJXu-11" value="0..n" style="edgeLabel;html=1;align=center;verticalAlign=middle;resizable=0;points=[];" vertex="1" connectable="0" parent="jsHb7b36GZ4GkRZqTDLe-11">
          <mxGeometry x="0.8109" relative="1" as="geometry">
            <mxPoint x="10" y="1" as="offset" />
          </mxGeometry>
        </mxCell>
        <mxCell id="LyLU5Vvw4hms6EyPSJXu-12" value="0..n" style="edgeLabel;html=1;align=center;verticalAlign=middle;resizable=0;points=[];" vertex="1" connectable="0" parent="jsHb7b36GZ4GkRZqTDLe-11">
          <mxGeometry x="-0.781" relative="1" as="geometry">
            <mxPoint x="10" y="-1" as="offset" />
          </mxGeometry>
        </mxCell>
        <mxCell id="voZhsEm-r_xCfaCIF_3K-14" value="Rivista" style="swimlane;fontStyle=0;childLayout=stackLayout;horizontal=1;startSize=30;horizontalStack=0;resizeParent=1;resizeParentMax=0;resizeLast=0;collapsible=1;marginBottom=0;whiteSpace=wrap;html=1;" parent="1" vertex="1">
          <mxGeometry x="-570" y="-540" width="150" height="110" as="geometry" />
        </mxCell>
        <mxCell id="voZhsEm-r_xCfaCIF_3K-15" value="&lt;font style=&quot;font-size: 10px;&quot;&gt;+ Nome: String&lt;/font&gt;" style="text;strokeColor=none;fillColor=none;align=left;verticalAlign=middle;spacingLeft=4;spacingRight=4;overflow=hidden;points=[[0,0.5],[1,0.5]];portConstraint=eastwest;rotatable=0;whiteSpace=wrap;html=1;" parent="voZhsEm-r_xCfaCIF_3K-14" vertex="1">
          <mxGeometry y="30" width="150" height="20" as="geometry" />
        </mxCell>
        <mxCell id="voZhsEm-r_xCfaCIF_3K-16" value="&lt;font style=&quot;font-size: 10px;&quot;&gt;+ Argomento: String&lt;/font&gt;" style="text;strokeColor=none;fillColor=none;align=left;verticalAlign=middle;spacingLeft=4;spacingRight=4;overflow=hidden;points=[[0,0.5],[1,0.5]];portConstraint=eastwest;rotatable=0;whiteSpace=wrap;html=1;" parent="voZhsEm-r_xCfaCIF_3K-14" vertex="1">
          <mxGeometry y="50" width="150" height="20" as="geometry" />
        </mxCell>
        <mxCell id="voZhsEm-r_xCfaCIF_3K-18" value="&lt;span style=&quot;font-size: 10px;&quot;&gt;+ Anno_Di_Pubblicazione: Int&lt;/span&gt;" style="text;strokeColor=none;fillColor=none;align=left;verticalAlign=middle;spacingLeft=4;spacingRight=4;overflow=hidden;points=[[0,0.5],[1,0.5]];portConstraint=eastwest;rotatable=0;whiteSpace=wrap;html=1;" parent="voZhsEm-r_xCfaCIF_3K-14" vertex="1">
          <mxGeometry y="70" width="150" height="20" as="geometry" />
        </mxCell>
        <mxCell id="jsHb7b36GZ4GkRZqTDLe-46" value="&lt;span style=&quot;font-size: 10px;&quot;&gt;+ Responsabile: String&lt;/span&gt;" style="text;strokeColor=none;fillColor=none;align=left;verticalAlign=middle;spacingLeft=4;spacingRight=4;overflow=hidden;points=[[0,0.5],[1,0.5]];portConstraint=eastwest;rotatable=0;whiteSpace=wrap;html=1;" parent="voZhsEm-r_xCfaCIF_3K-14" vertex="1">
          <mxGeometry y="90" width="150" height="20" as="geometry" />
        </mxCell>
        <mxCell id="jsHb7b36GZ4GkRZqTDLe-55" style="edgeStyle=orthogonalEdgeStyle;rounded=0;orthogonalLoop=1;jettySize=auto;html=1;fontSize=12;startSize=8;endSize=8;endArrow=none;startFill=0;" parent="1" source="voZhsEm-r_xCfaCIF_3K-21" target="jsHb7b36GZ4GkRZqTDLe-42" edge="1">
          <mxGeometry relative="1" as="geometry" />
        </mxCell>
        <mxCell id="LyLU5Vvw4hms6EyPSJXu-15" value="1..1" style="edgeLabel;html=1;align=center;verticalAlign=middle;resizable=0;points=[];" vertex="1" connectable="0" parent="jsHb7b36GZ4GkRZqTDLe-55">
          <mxGeometry x="0.7733" y="-1" relative="1" as="geometry">
            <mxPoint x="9" y="1" as="offset" />
          </mxGeometry>
        </mxCell>
        <mxCell id="LyLU5Vvw4hms6EyPSJXu-16" value="1..1" style="edgeLabel;html=1;align=center;verticalAlign=middle;resizable=0;points=[];" vertex="1" connectable="0" parent="jsHb7b36GZ4GkRZqTDLe-55">
          <mxGeometry x="-0.6743" y="2" relative="1" as="geometry">
            <mxPoint x="12" as="offset" />
          </mxGeometry>
        </mxCell>
        <mxCell id="voZhsEm-r_xCfaCIF_3K-21" value="Contatti" style="swimlane;fontStyle=0;childLayout=stackLayout;horizontal=1;startSize=30;horizontalStack=0;resizeParent=1;resizeParentMax=0;resizeLast=0;collapsible=1;marginBottom=0;whiteSpace=wrap;html=1;" parent="1" vertex="1">
          <mxGeometry x="-790" y="-490" width="140" height="70" as="geometry" />
        </mxCell>
        <mxCell id="voZhsEm-r_xCfaCIF_3K-22" value="&lt;font style=&quot;font-size: 10px;&quot;&gt;+ Numeri: Int&amp;nbsp;&lt;/font&gt;" style="text;strokeColor=none;fillColor=none;align=left;verticalAlign=middle;spacingLeft=4;spacingRight=4;overflow=hidden;points=[[0,0.5],[1,0.5]];portConstraint=eastwest;rotatable=0;whiteSpace=wrap;html=1;" parent="voZhsEm-r_xCfaCIF_3K-21" vertex="1">
          <mxGeometry y="30" width="140" height="20" as="geometry" />
        </mxCell>
        <mxCell id="voZhsEm-r_xCfaCIF_3K-23" value="&lt;font style=&quot;font-size: 10px;&quot;&gt;+ Email: String&lt;/font&gt;" style="text;strokeColor=none;fillColor=none;align=left;verticalAlign=middle;spacingLeft=4;spacingRight=4;overflow=hidden;points=[[0,0.5],[1,0.5]];portConstraint=eastwest;rotatable=0;whiteSpace=wrap;html=1;" parent="voZhsEm-r_xCfaCIF_3K-21" vertex="1">
          <mxGeometry y="50" width="140" height="20" as="geometry" />
        </mxCell>
        <mxCell id="jsHb7b36GZ4GkRZqTDLe-6" style="edgeStyle=orthogonalEdgeStyle;rounded=0;orthogonalLoop=1;jettySize=auto;html=1;fontSize=12;startSize=8;endSize=8;strokeColor=default;endArrow=none;startFill=0;" parent="1" source="voZhsEm-r_xCfaCIF_3K-31" target="jsHb7b36GZ4GkRZqTDLe-2" edge="1">
          <mxGeometry relative="1" as="geometry" />
        </mxCell>
        <mxCell id="LyLU5Vvw4hms6EyPSJXu-1" value="1..1" style="edgeLabel;html=1;align=center;verticalAlign=middle;resizable=0;points=[];" vertex="1" connectable="0" parent="jsHb7b36GZ4GkRZqTDLe-6">
          <mxGeometry x="0.7726" y="1" relative="1" as="geometry">
            <mxPoint x="9" y="1" as="offset" />
          </mxGeometry>
        </mxCell>
        <mxCell id="LyLU5Vvw4hms6EyPSJXu-2" value="1..1" style="edgeLabel;html=1;align=center;verticalAlign=middle;resizable=0;points=[];" vertex="1" connectable="0" parent="jsHb7b36GZ4GkRZqTDLe-6">
          <mxGeometry x="-0.8583" y="-2" relative="1" as="geometry">
            <mxPoint x="13" y="2" as="offset" />
          </mxGeometry>
        </mxCell>
        <mxCell id="voZhsEm-r_xCfaCIF_3K-31" value="Categoria" style="swimlane;fontStyle=0;childLayout=stackLayout;horizontal=1;startSize=30;horizontalStack=0;resizeParent=1;resizeParentMax=0;resizeLast=0;collapsible=1;marginBottom=0;whiteSpace=wrap;html=1;" parent="1" vertex="1">
          <mxGeometry x="-570" y="-1020" width="150" height="90" as="geometry" />
        </mxCell>
        <mxCell id="voZhsEm-r_xCfaCIF_3K-32" value="&lt;font style=&quot;font-size: 10px;&quot;&gt;+ Tipologia: String&lt;/font&gt;" style="text;strokeColor=none;fillColor=none;align=left;verticalAlign=middle;spacingLeft=4;spacingRight=4;overflow=hidden;points=[[0,0.5],[1,0.5]];portConstraint=eastwest;rotatable=0;whiteSpace=wrap;html=1;" parent="voZhsEm-r_xCfaCIF_3K-31" vertex="1">
          <mxGeometry y="30" width="150" height="20" as="geometry" />
        </mxCell>
        <mxCell id="voZhsEm-r_xCfaCIF_3K-33" value="&lt;font style=&quot;font-size: 10px;&quot;&gt;+ Genere: String&lt;/font&gt;" style="text;strokeColor=none;fillColor=none;align=left;verticalAlign=middle;spacingLeft=4;spacingRight=4;overflow=hidden;points=[[0,0.5],[1,0.5]];portConstraint=eastwest;rotatable=0;whiteSpace=wrap;html=1;" parent="voZhsEm-r_xCfaCIF_3K-31" vertex="1">
          <mxGeometry y="50" width="150" height="20" as="geometry" />
        </mxCell>
        <mxCell id="voZhsEm-r_xCfaCIF_3K-34" value="&lt;font style=&quot;font-size: 10px;&quot;&gt;+ Argomento: String&lt;/font&gt;" style="text;strokeColor=none;fillColor=none;align=left;verticalAlign=middle;spacingLeft=4;spacingRight=4;overflow=hidden;points=[[0,0.5],[1,0.5]];portConstraint=eastwest;rotatable=0;whiteSpace=wrap;html=1;" parent="voZhsEm-r_xCfaCIF_3K-31" vertex="1">
          <mxGeometry y="70" width="150" height="20" as="geometry" />
        </mxCell>
        <mxCell id="jsHb7b36GZ4GkRZqTDLe-8" style="edgeStyle=none;curved=1;rounded=0;orthogonalLoop=1;jettySize=auto;html=1;fontSize=12;startSize=8;endSize=8;endArrow=none;startFill=0;" parent="1" source="voZhsEm-r_xCfaCIF_3K-42" target="voZhsEm-r_xCfaCIF_3K-1" edge="1">
          <mxGeometry relative="1" as="geometry" />
        </mxCell>
        <mxCell id="LyLU5Vvw4hms6EyPSJXu-5" value="0..1" style="edgeLabel;html=1;align=center;verticalAlign=middle;resizable=0;points=[];rotation=20;" vertex="1" connectable="0" parent="jsHb7b36GZ4GkRZqTDLe-8">
          <mxGeometry x="0.7947" y="-1" relative="1" as="geometry">
            <mxPoint x="4" y="-6" as="offset" />
          </mxGeometry>
        </mxCell>
        <mxCell id="LyLU5Vvw4hms6EyPSJXu-6" value="1..1" style="edgeLabel;html=1;align=center;verticalAlign=middle;resizable=0;points=[];rotation=20;" vertex="1" connectable="0" parent="jsHb7b36GZ4GkRZqTDLe-8">
          <mxGeometry x="-0.6652" y="-2" relative="1" as="geometry">
            <mxPoint x="-1" y="-7" as="offset" />
          </mxGeometry>
        </mxCell>
        <mxCell id="voZhsEm-r_xCfaCIF_3K-42" value="Articolo" style="swimlane;fontStyle=0;childLayout=stackLayout;horizontal=1;startSize=30;horizontalStack=0;resizeParent=1;resizeParentMax=0;resizeLast=0;collapsible=1;marginBottom=0;whiteSpace=wrap;html=1;" parent="1" vertex="1">
          <mxGeometry x="-570" y="-680" width="150" height="70" as="geometry" />
        </mxCell>
        <mxCell id="voZhsEm-r_xCfaCIF_3K-44" value="&lt;font style=&quot;font-size: 10px;&quot;&gt;+ Rivista: Rivista&lt;/font&gt;" style="text;strokeColor=none;fillColor=none;align=left;verticalAlign=middle;spacingLeft=4;spacingRight=4;overflow=hidden;points=[[0,0.5],[1,0.5]];portConstraint=eastwest;rotatable=0;whiteSpace=wrap;html=1;" parent="voZhsEm-r_xCfaCIF_3K-42" vertex="1">
          <mxGeometry y="30" width="150" height="20" as="geometry" />
        </mxCell>
        <mxCell id="voZhsEm-r_xCfaCIF_3K-50" value="&lt;font style=&quot;font-size: 10px;&quot;&gt;+ Conferenza: Conferenza&lt;/font&gt;" style="text;strokeColor=none;fillColor=none;align=left;verticalAlign=middle;spacingLeft=4;spacingRight=4;overflow=hidden;points=[[0,0.5],[1,0.5]];portConstraint=eastwest;rotatable=0;whiteSpace=wrap;html=1;" parent="voZhsEm-r_xCfaCIF_3K-42" vertex="1">
          <mxGeometry y="50" width="150" height="20" as="geometry" />
        </mxCell>
        <mxCell id="voZhsEm-r_xCfaCIF_3K-46" value="Collana" style="swimlane;fontStyle=0;childLayout=stackLayout;horizontal=1;startSize=30;horizontalStack=0;resizeParent=1;resizeParentMax=0;resizeLast=0;collapsible=1;marginBottom=0;whiteSpace=wrap;html=1;" parent="1" vertex="1">
          <mxGeometry x="-380" y="-970" width="140" height="70" as="geometry" />
        </mxCell>
        <mxCell id="voZhsEm-r_xCfaCIF_3K-47" value="&lt;font style=&quot;font-size: 10px;&quot;&gt;+ Nome_Collana: String&lt;/font&gt;" style="text;strokeColor=none;fillColor=none;align=left;verticalAlign=middle;spacingLeft=4;spacingRight=4;overflow=hidden;points=[[0,0.5],[1,0.5]];portConstraint=eastwest;rotatable=0;whiteSpace=wrap;html=1;" parent="voZhsEm-r_xCfaCIF_3K-46" vertex="1">
          <mxGeometry y="30" width="140" height="20" as="geometry" />
        </mxCell>
        <mxCell id="voZhsEm-r_xCfaCIF_3K-48" value="&lt;font style=&quot;font-size: 10px;&quot;&gt;+ Numero_Collana: String&lt;/font&gt;" style="text;strokeColor=none;fillColor=none;align=left;verticalAlign=middle;spacingLeft=4;spacingRight=4;overflow=hidden;points=[[0,0.5],[1,0.5]];portConstraint=eastwest;rotatable=0;whiteSpace=wrap;html=1;" parent="voZhsEm-r_xCfaCIF_3K-46" vertex="1">
          <mxGeometry y="50" width="140" height="20" as="geometry" />
        </mxCell>
        <mxCell id="jsHb7b36GZ4GkRZqTDLe-12" style="edgeStyle=orthogonalEdgeStyle;rounded=0;orthogonalLoop=1;jettySize=auto;html=1;fontSize=12;startSize=8;endSize=8;endArrow=none;startFill=0;" parent="1" source="voZhsEm-r_xCfaCIF_3K-51" target="voZhsEm-r_xCfaCIF_3K-1" edge="1">
          <mxGeometry relative="1" as="geometry" />
        </mxCell>
        <mxCell id="LyLU5Vvw4hms6EyPSJXu-17" value="1..1" style="edgeLabel;html=1;align=center;verticalAlign=middle;resizable=0;points=[];" vertex="1" connectable="0" parent="jsHb7b36GZ4GkRZqTDLe-12">
          <mxGeometry x="0.8079" relative="1" as="geometry">
            <mxPoint x="10" y="-3" as="offset" />
          </mxGeometry>
        </mxCell>
        <mxCell id="LyLU5Vvw4hms6EyPSJXu-18" value="1..n" style="edgeLabel;html=1;align=center;verticalAlign=middle;resizable=0;points=[];" vertex="1" connectable="0" parent="jsHb7b36GZ4GkRZqTDLe-12">
          <mxGeometry x="-0.8111" relative="1" as="geometry">
            <mxPoint x="10" y="1" as="offset" />
          </mxGeometry>
        </mxCell>
        <mxCell id="voZhsEm-r_xCfaCIF_3K-51" value="Formato" style="swimlane;fontStyle=0;childLayout=stackLayout;horizontal=1;startSize=30;horizontalStack=0;resizeParent=1;resizeParentMax=0;resizeLast=0;collapsible=1;marginBottom=0;whiteSpace=wrap;html=1;" parent="1" vertex="1">
          <mxGeometry x="-790" y="-910" width="140" height="70" as="geometry" />
        </mxCell>
        <mxCell id="voZhsEm-r_xCfaCIF_3K-52" value="&lt;span style=&quot;font-size: 10px;&quot;&gt;+ Tipo&lt;/span&gt;&lt;span style=&quot;font-size: 10px; background-color: transparent; color: light-dark(rgb(0, 0, 0), rgb(255, 255, 255));&quot;&gt;_Formato: String&lt;/span&gt;" style="text;strokeColor=none;fillColor=none;align=left;verticalAlign=middle;spacingLeft=4;spacingRight=4;overflow=hidden;points=[[0,0.5],[1,0.5]];portConstraint=eastwest;rotatable=0;whiteSpace=wrap;html=1;" parent="voZhsEm-r_xCfaCIF_3K-51" vertex="1">
          <mxGeometry y="30" width="140" height="20" as="geometry" />
        </mxCell>
        <mxCell id="voZhsEm-r_xCfaCIF_3K-53" value="&lt;span style=&quot;font-size: 10px;&quot;&gt;+ Peso_Formato: Int&lt;/span&gt;" style="text;strokeColor=none;fillColor=none;align=left;verticalAlign=middle;spacingLeft=4;spacingRight=4;overflow=hidden;points=[[0,0.5],[1,0.5]];portConstraint=eastwest;rotatable=0;whiteSpace=wrap;html=1;" parent="voZhsEm-r_xCfaCIF_3K-51" vertex="1">
          <mxGeometry y="50" width="140" height="20" as="geometry" />
        </mxCell>
        <mxCell id="jsHb7b36GZ4GkRZqTDLe-7" style="edgeStyle=none;curved=0;rounded=0;orthogonalLoop=1;jettySize=auto;html=1;fontSize=12;startSize=8;endSize=8;endArrow=none;startFill=0;" parent="1" source="jsHb7b36GZ4GkRZqTDLe-2" target="voZhsEm-r_xCfaCIF_3K-1" edge="1">
          <mxGeometry relative="1" as="geometry" />
        </mxCell>
        <mxCell id="LyLU5Vvw4hms6EyPSJXu-7" value="0..1" style="edgeLabel;html=1;align=center;verticalAlign=middle;resizable=0;points=[];rotation=340;" vertex="1" connectable="0" parent="jsHb7b36GZ4GkRZqTDLe-7">
          <mxGeometry x="-0.7886" relative="1" as="geometry">
            <mxPoint x="-50" y="10" as="offset" />
          </mxGeometry>
        </mxCell>
        <mxCell id="LyLU5Vvw4hms6EyPSJXu-8" value="1..1" style="edgeLabel;html=1;align=center;verticalAlign=middle;resizable=0;points=[];rotation=340;" vertex="1" connectable="0" parent="jsHb7b36GZ4GkRZqTDLe-7">
          <mxGeometry x="-0.7875" y="-2" relative="1" as="geometry">
            <mxPoint x="-4" y="-5" as="offset" />
          </mxGeometry>
        </mxCell>
        <mxCell id="jsHb7b36GZ4GkRZqTDLe-2" value="Libro" style="swimlane;fontStyle=0;childLayout=stackLayout;horizontal=1;startSize=30;horizontalStack=0;resizeParent=1;resizeParentMax=0;resizeLast=0;collapsible=1;marginBottom=0;whiteSpace=wrap;html=1;" parent="1" vertex="1">
          <mxGeometry x="-570" y="-840" width="150" height="70" as="geometry" />
        </mxCell>
        <mxCell id="jsHb7b36GZ4GkRZqTDLe-26" value="&lt;font style=&quot;font-size: 10px;&quot;&gt;+ Data_Uscita&lt;/font&gt;&lt;span style=&quot;font-size: 10px; background-color: transparent; color: light-dark(rgb(0, 0, 0), rgb(255, 255, 255));&quot;&gt;: Int&lt;/span&gt;" style="text;strokeColor=none;fillColor=none;align=left;verticalAlign=middle;spacingLeft=4;spacingRight=4;overflow=hidden;points=[[0,0.5],[1,0.5]];portConstraint=eastwest;rotatable=0;whiteSpace=wrap;html=1;" parent="jsHb7b36GZ4GkRZqTDLe-2" vertex="1">
          <mxGeometry y="30" width="150" height="20" as="geometry" />
        </mxCell>
        <mxCell id="jsHb7b36GZ4GkRZqTDLe-27" value="&lt;font style=&quot;font-size: 10px;&quot;&gt;+ Luogo_Presentazione&lt;/font&gt;&lt;span style=&quot;font-size: 10px; background-color: transparent; color: light-dark(rgb(0, 0, 0), rgb(255, 255, 255));&quot;&gt;: String&lt;/span&gt;" style="text;strokeColor=none;fillColor=none;align=left;verticalAlign=middle;spacingLeft=4;spacingRight=4;overflow=hidden;points=[[0,0.5],[1,0.5]];portConstraint=eastwest;rotatable=0;whiteSpace=wrap;html=1;" parent="jsHb7b36GZ4GkRZqTDLe-2" vertex="1">
          <mxGeometry y="50" width="150" height="20" as="geometry" />
        </mxCell>
        <mxCell id="jsHb7b36GZ4GkRZqTDLe-33" value="" style="endArrow=none;html=1;edgeStyle=orthogonalEdgeStyle;rounded=0;fontSize=12;startSize=8;endSize=8;curved=0;" parent="1" source="jsHb7b36GZ4GkRZqTDLe-2" target="voZhsEm-r_xCfaCIF_3K-46" edge="1">
          <mxGeometry relative="1" as="geometry">
            <mxPoint x="-390" y="-760" as="sourcePoint" />
            <mxPoint x="-230" y="-760" as="targetPoint" />
          </mxGeometry>
        </mxCell>
        <mxCell id="jsHb7b36GZ4GkRZqTDLe-34" value="2..n" style="edgeLabel;resizable=0;html=1;align=left;verticalAlign=bottom;" parent="jsHb7b36GZ4GkRZqTDLe-33" connectable="0" vertex="1">
          <mxGeometry x="-1" relative="1" as="geometry">
            <mxPoint x="-1" y="1" as="offset" />
          </mxGeometry>
        </mxCell>
        <mxCell id="jsHb7b36GZ4GkRZqTDLe-35" value="0..1" style="edgeLabel;resizable=0;html=1;align=right;verticalAlign=bottom;" parent="jsHb7b36GZ4GkRZqTDLe-33" connectable="0" vertex="1">
          <mxGeometry x="1" relative="1" as="geometry">
            <mxPoint x="-1" y="17" as="offset" />
          </mxGeometry>
        </mxCell>
        <mxCell id="jsHb7b36GZ4GkRZqTDLe-56" style="edgeStyle=orthogonalEdgeStyle;rounded=0;orthogonalLoop=1;jettySize=auto;html=1;fontSize=12;startSize=8;endSize=8;endArrow=none;startFill=0;" parent="1" source="jsHb7b36GZ4GkRZqTDLe-42" target="voZhsEm-r_xCfaCIF_3K-1" edge="1">
          <mxGeometry relative="1" as="geometry" />
        </mxCell>
        <mxCell id="LyLU5Vvw4hms6EyPSJXu-13" value="1..n" style="edgeLabel;html=1;align=center;verticalAlign=middle;resizable=0;points=[];" vertex="1" connectable="0" parent="jsHb7b36GZ4GkRZqTDLe-56">
          <mxGeometry x="0.6929" y="-1" relative="1" as="geometry">
            <mxPoint x="9" y="1" as="offset" />
          </mxGeometry>
        </mxCell>
        <mxCell id="LyLU5Vvw4hms6EyPSJXu-14" value="1..1" style="edgeLabel;html=1;align=center;verticalAlign=middle;resizable=0;points=[];" vertex="1" connectable="0" parent="jsHb7b36GZ4GkRZqTDLe-56">
          <mxGeometry x="-0.6643" relative="1" as="geometry">
            <mxPoint x="10" y="-1" as="offset" />
          </mxGeometry>
        </mxCell>
        <mxCell id="jsHb7b36GZ4GkRZqTDLe-42" value="Editore" style="swimlane;fontStyle=0;childLayout=stackLayout;horizontal=1;startSize=30;horizontalStack=0;resizeParent=1;resizeParentMax=0;resizeLast=0;collapsible=1;marginBottom=0;whiteSpace=wrap;html=1;" parent="1" vertex="1">
          <mxGeometry x="-790" y="-630" width="140" height="90" as="geometry" />
        </mxCell>
        <mxCell id="jsHb7b36GZ4GkRZqTDLe-43" value="&lt;font style=&quot;font-size: 10px;&quot;&gt;+ Nome: String&lt;/font&gt;" style="text;strokeColor=none;fillColor=none;align=left;verticalAlign=middle;spacingLeft=4;spacingRight=4;overflow=hidden;points=[[0,0.5],[1,0.5]];portConstraint=eastwest;rotatable=0;whiteSpace=wrap;html=1;" parent="jsHb7b36GZ4GkRZqTDLe-42" vertex="1">
          <mxGeometry y="30" width="140" height="20" as="geometry" />
        </mxCell>
        <mxCell id="jsHb7b36GZ4GkRZqTDLe-44" value="&lt;font style=&quot;font-size: 10px;&quot;&gt;+ Sede: String&lt;/font&gt;" style="text;strokeColor=none;fillColor=none;align=left;verticalAlign=middle;spacingLeft=4;spacingRight=4;overflow=hidden;points=[[0,0.5],[1,0.5]];portConstraint=eastwest;rotatable=0;whiteSpace=wrap;html=1;" parent="jsHb7b36GZ4GkRZqTDLe-42" vertex="1">
          <mxGeometry y="50" width="140" height="20" as="geometry" />
        </mxCell>
        <mxCell id="jsHb7b36GZ4GkRZqTDLe-45" value="&lt;span style=&quot;font-size: 10px;&quot;&gt;+ Contatti: Contatti&lt;/span&gt;" style="text;strokeColor=none;fillColor=none;align=left;verticalAlign=middle;spacingLeft=4;spacingRight=4;overflow=hidden;points=[[0,0.5],[1,0.5]];portConstraint=eastwest;rotatable=0;whiteSpace=wrap;html=1;" parent="jsHb7b36GZ4GkRZqTDLe-42" vertex="1">
          <mxGeometry y="70" width="140" height="20" as="geometry" />
        </mxCell>
        <mxCell id="jsHb7b36GZ4GkRZqTDLe-52" style="edgeStyle=orthogonalEdgeStyle;rounded=0;orthogonalLoop=1;jettySize=auto;html=1;fontSize=12;startSize=8;endSize=8;endArrow=none;startFill=0;" parent="1" source="jsHb7b36GZ4GkRZqTDLe-47" target="voZhsEm-r_xCfaCIF_3K-42" edge="1">
          <mxGeometry relative="1" as="geometry" />
        </mxCell>
        <mxCell id="LyLU5Vvw4hms6EyPSJXu-9" value="0..n" style="edgeLabel;html=1;align=center;verticalAlign=middle;resizable=0;points=[];" vertex="1" connectable="0" parent="jsHb7b36GZ4GkRZqTDLe-52">
          <mxGeometry x="0.9333" relative="1" as="geometry">
            <mxPoint x="5" y="-8" as="offset" />
          </mxGeometry>
        </mxCell>
        <mxCell id="LyLU5Vvw4hms6EyPSJXu-10" value="0..n" style="edgeLabel;html=1;align=center;verticalAlign=middle;resizable=0;points=[];" vertex="1" connectable="0" parent="jsHb7b36GZ4GkRZqTDLe-52">
          <mxGeometry x="-0.8762" y="-2" relative="1" as="geometry">
            <mxPoint x="-2" y="-6" as="offset" />
          </mxGeometry>
        </mxCell>
        <mxCell id="jsHb7b36GZ4GkRZqTDLe-47" value="Conferenza" style="swimlane;fontStyle=0;childLayout=stackLayout;horizontal=1;startSize=30;horizontalStack=0;resizeParent=1;resizeParentMax=0;resizeLast=0;collapsible=1;marginBottom=0;whiteSpace=wrap;html=1;" parent="1" vertex="1">
          <mxGeometry x="-380" y="-610" width="140" height="130" as="geometry" />
        </mxCell>
        <mxCell id="jsHb7b36GZ4GkRZqTDLe-48" value="&lt;font style=&quot;font-size: 10px;&quot;&gt;+ Luogo: String&lt;/font&gt;" style="text;strokeColor=none;fillColor=none;align=left;verticalAlign=middle;spacingLeft=4;spacingRight=4;overflow=hidden;points=[[0,0.5],[1,0.5]];portConstraint=eastwest;rotatable=0;whiteSpace=wrap;html=1;" parent="jsHb7b36GZ4GkRZqTDLe-47" vertex="1">
          <mxGeometry y="30" width="140" height="20" as="geometry" />
        </mxCell>
        <mxCell id="jsHb7b36GZ4GkRZqTDLe-49" value="&lt;font style=&quot;font-size: 10px;&quot;&gt;+ Data_Inizio: Int&lt;/font&gt;" style="text;strokeColor=none;fillColor=none;align=left;verticalAlign=middle;spacingLeft=4;spacingRight=4;overflow=hidden;points=[[0,0.5],[1,0.5]];portConstraint=eastwest;rotatable=0;whiteSpace=wrap;html=1;" parent="jsHb7b36GZ4GkRZqTDLe-47" vertex="1">
          <mxGeometry y="50" width="140" height="20" as="geometry" />
        </mxCell>
        <mxCell id="jsHb7b36GZ4GkRZqTDLe-50" value="&lt;span style=&quot;font-size: 10px;&quot;&gt;+ Data_Fine: Int&lt;/span&gt;" style="text;strokeColor=none;fillColor=none;align=left;verticalAlign=middle;spacingLeft=4;spacingRight=4;overflow=hidden;points=[[0,0.5],[1,0.5]];portConstraint=eastwest;rotatable=0;whiteSpace=wrap;html=1;" parent="jsHb7b36GZ4GkRZqTDLe-47" vertex="1">
          <mxGeometry y="70" width="140" height="20" as="geometry" />
        </mxCell>
        <mxCell id="jsHb7b36GZ4GkRZqTDLe-53" value="&lt;span style=&quot;font-size: 10px;&quot;&gt;+ Struttura: String&lt;/span&gt;" style="text;strokeColor=none;fillColor=none;align=left;verticalAlign=middle;spacingLeft=4;spacingRight=4;overflow=hidden;points=[[0,0.5],[1,0.5]];portConstraint=eastwest;rotatable=0;whiteSpace=wrap;html=1;" parent="jsHb7b36GZ4GkRZqTDLe-47" vertex="1">
          <mxGeometry y="90" width="140" height="20" as="geometry" />
        </mxCell>
        <mxCell id="jsHb7b36GZ4GkRZqTDLe-51" value="&lt;span style=&quot;font-size: 10px;&quot;&gt;+ Responsabile: String&lt;/span&gt;" style="text;strokeColor=none;fillColor=none;align=left;verticalAlign=middle;spacingLeft=4;spacingRight=4;overflow=hidden;points=[[0,0.5],[1,0.5]];portConstraint=eastwest;rotatable=0;whiteSpace=wrap;html=1;" parent="jsHb7b36GZ4GkRZqTDLe-47" vertex="1">
          <mxGeometry y="110" width="140" height="20" as="geometry" />
        </mxCell>
        <mxCell id="LyLU5Vvw4hms6EyPSJXu-19" value="Pubblicazione" style="whiteSpace=wrap;html=1;align=center;" vertex="1" parent="1">
          <mxGeometry x="-390" y="-150" width="100" height="40" as="geometry" />
        </mxCell>
        <mxCell id="LyLU5Vvw4hms6EyPSJXu-21" style="rounded=0;orthogonalLoop=1;jettySize=auto;html=1;entryX=0.5;entryY=0;entryDx=0;entryDy=0;endArrow=none;startFill=0;" edge="1" parent="1" source="LyLU5Vvw4hms6EyPSJXu-20" target="LyLU5Vvw4hms6EyPSJXu-19">
          <mxGeometry relative="1" as="geometry" />
        </mxCell>
        <mxCell id="LyLU5Vvw4hms6EyPSJXu-20" value="Titolo" style="ellipse;whiteSpace=wrap;html=1;align=center;" vertex="1" parent="1">
          <mxGeometry x="-390" y="-240" width="100" height="40" as="geometry" />
        </mxCell>
        <mxCell id="LyLU5Vvw4hms6EyPSJXu-24" style="edgeStyle=none;shape=connector;rounded=0;orthogonalLoop=1;jettySize=auto;html=1;strokeColor=default;align=center;verticalAlign=middle;fontFamily=Helvetica;fontSize=11;fontColor=default;labelBackgroundColor=default;startFill=0;endArrow=none;" edge="1" parent="1" source="LyLU5Vvw4hms6EyPSJXu-23" target="LyLU5Vvw4hms6EyPSJXu-19">
          <mxGeometry relative="1" as="geometry" />
        </mxCell>
        <mxCell id="LyLU5Vvw4hms6EyPSJXu-23" value="Anno" style="ellipse;whiteSpace=wrap;html=1;align=center;fontFamily=Helvetica;fontSize=11;fontColor=default;labelBackgroundColor=default;" vertex="1" parent="1">
          <mxGeometry x="-310" y="-280" width="100" height="40" as="geometry" />
        </mxCell>
        <mxCell id="LyLU5Vvw4hms6EyPSJXu-31" style="edgeStyle=none;shape=connector;rounded=0;orthogonalLoop=1;jettySize=auto;html=1;strokeColor=default;align=center;verticalAlign=middle;fontFamily=Helvetica;fontSize=11;fontColor=default;labelBackgroundColor=default;startFill=0;endArrow=none;" edge="1" parent="1" source="LyLU5Vvw4hms6EyPSJXu-68" target="LyLU5Vvw4hms6EyPSJXu-19">
          <mxGeometry relative="1" as="geometry">
            <mxPoint x="-440" y="-130" as="sourcePoint" />
          </mxGeometry>
        </mxCell>
        <mxCell id="LyLU5Vvw4hms6EyPSJXu-30" style="edgeStyle=none;shape=connector;rounded=0;orthogonalLoop=1;jettySize=auto;html=1;strokeColor=default;align=center;verticalAlign=middle;fontFamily=Helvetica;fontSize=11;fontColor=default;labelBackgroundColor=default;startFill=0;endArrow=none;" edge="1" parent="1" source="LyLU5Vvw4hms6EyPSJXu-71" target="LyLU5Vvw4hms6EyPSJXu-19">
          <mxGeometry relative="1" as="geometry">
            <mxPoint x="-425.55555555555566" y="-200" as="sourcePoint" />
          </mxGeometry>
        </mxCell>
        <mxCell id="LyLU5Vvw4hms6EyPSJXu-33" style="edgeStyle=none;shape=connector;rounded=0;orthogonalLoop=1;jettySize=auto;html=1;strokeColor=default;align=center;verticalAlign=middle;fontFamily=Helvetica;fontSize=11;fontColor=default;labelBackgroundColor=default;startFill=0;endArrow=none;" edge="1" parent="1" source="LyLU5Vvw4hms6EyPSJXu-73" target="LyLU5Vvw4hms6EyPSJXu-19">
          <mxGeometry relative="1" as="geometry">
            <mxPoint x="-420.43181681861915" y="-86.12809991711674" as="sourcePoint" />
          </mxGeometry>
        </mxCell>
        <mxCell id="LyLU5Vvw4hms6EyPSJXu-37" style="edgeStyle=none;shape=connector;rounded=0;orthogonalLoop=1;jettySize=auto;html=1;strokeColor=default;align=center;verticalAlign=middle;fontFamily=Helvetica;fontSize=11;fontColor=default;labelBackgroundColor=default;startFill=0;endArrow=none;" edge="1" parent="1" source="LyLU5Vvw4hms6EyPSJXu-34" target="LyLU5Vvw4hms6EyPSJXu-71">
          <mxGeometry relative="1" as="geometry">
            <mxPoint x="-450" y="-240" as="targetPoint" />
          </mxGeometry>
        </mxCell>
        <mxCell id="LyLU5Vvw4hms6EyPSJXu-34" value="Nome" style="ellipse;whiteSpace=wrap;html=1;align=center;fontFamily=Helvetica;fontSize=11;fontColor=default;labelBackgroundColor=default;" vertex="1" parent="1">
          <mxGeometry x="-500" y="-340" width="100" height="40" as="geometry" />
        </mxCell>
        <mxCell id="LyLU5Vvw4hms6EyPSJXu-44" style="edgeStyle=none;shape=connector;rounded=0;orthogonalLoop=1;jettySize=auto;html=1;strokeColor=default;align=center;verticalAlign=middle;fontFamily=Helvetica;fontSize=11;fontColor=default;labelBackgroundColor=default;startFill=0;endArrow=none;" edge="1" parent="1" source="LyLU5Vvw4hms6EyPSJXu-41" target="LyLU5Vvw4hms6EyPSJXu-71">
          <mxGeometry relative="1" as="geometry">
            <mxPoint x="-481.42857142857156" y="-240" as="targetPoint" />
          </mxGeometry>
        </mxCell>
        <mxCell id="LyLU5Vvw4hms6EyPSJXu-41" value="Cognome" style="ellipse;whiteSpace=wrap;html=1;align=center;fontFamily=Helvetica;fontSize=11;fontColor=default;labelBackgroundColor=default;" vertex="1" parent="1">
          <mxGeometry x="-610" y="-310" width="100" height="40" as="geometry" />
        </mxCell>
        <mxCell id="LyLU5Vvw4hms6EyPSJXu-43" style="edgeStyle=none;shape=connector;rounded=0;orthogonalLoop=1;jettySize=auto;html=1;strokeColor=default;align=center;verticalAlign=middle;fontFamily=Helvetica;fontSize=11;fontColor=default;labelBackgroundColor=default;startFill=0;endArrow=none;" edge="1" parent="1" source="LyLU5Vvw4hms6EyPSJXu-42">
          <mxGeometry relative="1" as="geometry">
            <mxPoint x="-500" y="-220" as="targetPoint" />
          </mxGeometry>
        </mxCell>
        <mxCell id="LyLU5Vvw4hms6EyPSJXu-42" value="Anno di nascita" style="ellipse;whiteSpace=wrap;html=1;align=center;fontFamily=Helvetica;fontSize=11;fontColor=default;labelBackgroundColor=default;" vertex="1" parent="1">
          <mxGeometry x="-650" y="-240" width="100" height="40" as="geometry" />
        </mxCell>
        <mxCell id="LyLU5Vvw4hms6EyPSJXu-50" style="edgeStyle=none;shape=connector;rounded=0;orthogonalLoop=1;jettySize=auto;html=1;strokeColor=default;align=center;verticalAlign=middle;fontFamily=Helvetica;fontSize=11;fontColor=default;labelBackgroundColor=default;startFill=0;endArrow=none;" edge="1" parent="1" source="LyLU5Vvw4hms6EyPSJXu-45" target="LyLU5Vvw4hms6EyPSJXu-68">
          <mxGeometry relative="1" as="geometry">
            <mxPoint x="-540" y="-141.53846153846143" as="targetPoint" />
          </mxGeometry>
        </mxCell>
        <mxCell id="LyLU5Vvw4hms6EyPSJXu-45" value="Nome" style="ellipse;whiteSpace=wrap;html=1;align=center;fontFamily=Helvetica;fontSize=11;fontColor=default;labelBackgroundColor=default;" vertex="1" parent="1">
          <mxGeometry x="-670" y="-180" width="100" height="40" as="geometry" />
        </mxCell>
        <mxCell id="LyLU5Vvw4hms6EyPSJXu-49" style="edgeStyle=none;shape=connector;rounded=0;orthogonalLoop=1;jettySize=auto;html=1;strokeColor=default;align=center;verticalAlign=middle;fontFamily=Helvetica;fontSize=11;fontColor=default;labelBackgroundColor=default;startFill=0;endArrow=none;" edge="1" parent="1" source="LyLU5Vvw4hms6EyPSJXu-46" target="LyLU5Vvw4hms6EyPSJXu-68">
          <mxGeometry relative="1" as="geometry">
            <mxPoint x="-540" y="-120.625" as="targetPoint" />
          </mxGeometry>
        </mxCell>
        <mxCell id="LyLU5Vvw4hms6EyPSJXu-46" value="Sede" style="ellipse;whiteSpace=wrap;html=1;align=center;fontFamily=Helvetica;fontSize=11;fontColor=default;labelBackgroundColor=default;" vertex="1" parent="1">
          <mxGeometry x="-700" y="-120" width="100" height="40" as="geometry" />
        </mxCell>
        <mxCell id="LyLU5Vvw4hms6EyPSJXu-48" style="edgeStyle=none;shape=connector;rounded=0;orthogonalLoop=1;jettySize=auto;html=1;strokeColor=default;align=center;verticalAlign=middle;fontFamily=Helvetica;fontSize=11;fontColor=default;labelBackgroundColor=default;startFill=0;endArrow=none;" edge="1" parent="1" source="LyLU5Vvw4hms6EyPSJXu-47" target="LyLU5Vvw4hms6EyPSJXu-68">
          <mxGeometry relative="1" as="geometry">
            <mxPoint x="-518.8888888888889" y="-110" as="targetPoint" />
          </mxGeometry>
        </mxCell>
        <mxCell id="LyLU5Vvw4hms6EyPSJXu-47" value="Contatti" style="ellipse;whiteSpace=wrap;html=1;align=center;fontFamily=Helvetica;fontSize=11;fontColor=default;labelBackgroundColor=default;" vertex="1" parent="1">
          <mxGeometry x="-670" y="-60" width="100" height="40" as="geometry" />
        </mxCell>
        <mxCell id="LyLU5Vvw4hms6EyPSJXu-52" style="edgeStyle=none;shape=connector;rounded=0;orthogonalLoop=1;jettySize=auto;html=1;strokeColor=default;align=center;verticalAlign=middle;fontFamily=Helvetica;fontSize=11;fontColor=default;labelBackgroundColor=default;startFill=0;endArrow=none;" edge="1" parent="1" source="LyLU5Vvw4hms6EyPSJXu-51" target="LyLU5Vvw4hms6EyPSJXu-47">
          <mxGeometry relative="1" as="geometry" />
        </mxCell>
        <mxCell id="LyLU5Vvw4hms6EyPSJXu-51" value="Numero" style="ellipse;whiteSpace=wrap;html=1;align=center;fontFamily=Helvetica;fontSize=11;fontColor=default;labelBackgroundColor=default;" vertex="1" parent="1">
          <mxGeometry x="-810" y="-40" width="100" height="40" as="geometry" />
        </mxCell>
        <mxCell id="LyLU5Vvw4hms6EyPSJXu-54" style="edgeStyle=none;shape=connector;rounded=0;orthogonalLoop=1;jettySize=auto;html=1;strokeColor=default;align=center;verticalAlign=middle;fontFamily=Helvetica;fontSize=11;fontColor=default;labelBackgroundColor=default;startFill=0;endArrow=none;" edge="1" parent="1" source="LyLU5Vvw4hms6EyPSJXu-53" target="LyLU5Vvw4hms6EyPSJXu-47">
          <mxGeometry relative="1" as="geometry" />
        </mxCell>
        <mxCell id="LyLU5Vvw4hms6EyPSJXu-53" value="Email" style="ellipse;whiteSpace=wrap;html=1;align=center;fontFamily=Helvetica;fontSize=11;fontColor=default;labelBackgroundColor=default;" vertex="1" parent="1">
          <mxGeometry x="-730" y="30" width="100" height="40" as="geometry" />
        </mxCell>
        <mxCell id="LyLU5Vvw4hms6EyPSJXu-58" style="edgeStyle=none;shape=connector;rounded=0;orthogonalLoop=1;jettySize=auto;html=1;strokeColor=default;align=center;verticalAlign=middle;fontFamily=Helvetica;fontSize=11;fontColor=default;labelBackgroundColor=default;startFill=0;endArrow=none;" edge="1" parent="1" source="LyLU5Vvw4hms6EyPSJXu-56" target="LyLU5Vvw4hms6EyPSJXu-73">
          <mxGeometry relative="1" as="geometry">
            <mxPoint x="-462.4520519905309" y="-50.63014134806326" as="targetPoint" />
          </mxGeometry>
        </mxCell>
        <mxCell id="LyLU5Vvw4hms6EyPSJXu-56" value="Nome formato" style="ellipse;whiteSpace=wrap;html=1;align=center;fontFamily=Helvetica;fontSize=11;fontColor=default;labelBackgroundColor=default;" vertex="1" parent="1">
          <mxGeometry x="-545" y="-20" width="100" height="40" as="geometry" />
        </mxCell>
        <mxCell id="LyLU5Vvw4hms6EyPSJXu-59" style="edgeStyle=none;shape=connector;rounded=0;orthogonalLoop=1;jettySize=auto;html=1;strokeColor=default;align=center;verticalAlign=middle;fontFamily=Helvetica;fontSize=11;fontColor=default;labelBackgroundColor=default;startFill=0;endArrow=none;" edge="1" parent="1" source="LyLU5Vvw4hms6EyPSJXu-57" target="LyLU5Vvw4hms6EyPSJXu-73">
          <mxGeometry relative="1" as="geometry">
            <mxPoint x="-446.3732152111229" y="-50.05268366117389" as="targetPoint" />
          </mxGeometry>
        </mxCell>
        <mxCell id="LyLU5Vvw4hms6EyPSJXu-57" value="Peso formato" style="ellipse;whiteSpace=wrap;html=1;align=center;fontFamily=Helvetica;fontSize=11;fontColor=default;labelBackgroundColor=default;" vertex="1" parent="1">
          <mxGeometry x="-480" y="20" width="100" height="40" as="geometry" />
        </mxCell>
        <mxCell id="LyLU5Vvw4hms6EyPSJXu-62" style="edgeStyle=none;shape=connector;rounded=0;orthogonalLoop=1;jettySize=auto;html=1;strokeColor=default;align=center;verticalAlign=middle;fontFamily=Helvetica;fontSize=11;fontColor=default;labelBackgroundColor=default;startFill=0;endArrow=none;" edge="1" parent="1" source="LyLU5Vvw4hms6EyPSJXu-60" target="LyLU5Vvw4hms6EyPSJXu-19">
          <mxGeometry relative="1" as="geometry" />
        </mxCell>
        <mxCell id="LyLU5Vvw4hms6EyPSJXu-117" value="0..1" style="edgeLabel;html=1;align=center;verticalAlign=middle;resizable=0;points=[];fontFamily=Helvetica;fontSize=11;fontColor=default;labelBackgroundColor=default;" vertex="1" connectable="0" parent="LyLU5Vvw4hms6EyPSJXu-62">
          <mxGeometry x="0.7852" y="-1" relative="1" as="geometry">
            <mxPoint x="1" y="-11" as="offset" />
          </mxGeometry>
        </mxCell>
        <mxCell id="LyLU5Vvw4hms6EyPSJXu-60" value="Libro" style="whiteSpace=wrap;html=1;align=center;fontFamily=Helvetica;fontSize=11;fontColor=default;labelBackgroundColor=default;" vertex="1" parent="1">
          <mxGeometry x="-210" y="-200" width="100" height="40" as="geometry" />
        </mxCell>
        <mxCell id="LyLU5Vvw4hms6EyPSJXu-63" style="edgeStyle=none;shape=connector;rounded=0;orthogonalLoop=1;jettySize=auto;html=1;strokeColor=default;align=center;verticalAlign=middle;fontFamily=Helvetica;fontSize=11;fontColor=default;labelBackgroundColor=default;startFill=0;endArrow=none;" edge="1" parent="1" source="LyLU5Vvw4hms6EyPSJXu-61" target="LyLU5Vvw4hms6EyPSJXu-19">
          <mxGeometry relative="1" as="geometry" />
        </mxCell>
        <mxCell id="LyLU5Vvw4hms6EyPSJXu-118" value="0..1" style="edgeLabel;html=1;align=center;verticalAlign=middle;resizable=0;points=[];fontFamily=Helvetica;fontSize=11;fontColor=default;labelBackgroundColor=default;" vertex="1" connectable="0" parent="LyLU5Vvw4hms6EyPSJXu-63">
          <mxGeometry x="0.791" y="1" relative="1" as="geometry">
            <mxPoint x="13" as="offset" />
          </mxGeometry>
        </mxCell>
        <mxCell id="LyLU5Vvw4hms6EyPSJXu-91" style="edgeStyle=none;shape=connector;rounded=0;orthogonalLoop=1;jettySize=auto;html=1;strokeColor=default;align=center;verticalAlign=middle;fontFamily=Helvetica;fontSize=11;fontColor=default;labelBackgroundColor=default;startFill=0;endArrow=none;" edge="1" parent="1" source="LyLU5Vvw4hms6EyPSJXu-61" target="LyLU5Vvw4hms6EyPSJXu-89">
          <mxGeometry relative="1" as="geometry" />
        </mxCell>
        <mxCell id="LyLU5Vvw4hms6EyPSJXu-113" value="0..n" style="edgeLabel;html=1;align=center;verticalAlign=middle;resizable=0;points=[];fontFamily=Helvetica;fontSize=11;fontColor=default;labelBackgroundColor=default;" vertex="1" connectable="0" parent="LyLU5Vvw4hms6EyPSJXu-91">
          <mxGeometry x="-0.7726" relative="1" as="geometry">
            <mxPoint x="13" y="1" as="offset" />
          </mxGeometry>
        </mxCell>
        <mxCell id="LyLU5Vvw4hms6EyPSJXu-114" value="0..n" style="edgeLabel;html=1;align=center;verticalAlign=middle;resizable=0;points=[];fontFamily=Helvetica;fontSize=11;fontColor=default;labelBackgroundColor=default;" vertex="1" connectable="0" parent="LyLU5Vvw4hms6EyPSJXu-91">
          <mxGeometry x="0.8247" relative="1" as="geometry">
            <mxPoint x="12" as="offset" />
          </mxGeometry>
        </mxCell>
        <mxCell id="LyLU5Vvw4hms6EyPSJXu-92" style="edgeStyle=none;shape=connector;rounded=0;orthogonalLoop=1;jettySize=auto;html=1;strokeColor=default;align=center;verticalAlign=middle;fontFamily=Helvetica;fontSize=11;fontColor=default;labelBackgroundColor=default;startFill=0;endArrow=none;" edge="1" parent="1" source="LyLU5Vvw4hms6EyPSJXu-61" target="LyLU5Vvw4hms6EyPSJXu-90">
          <mxGeometry relative="1" as="geometry" />
        </mxCell>
        <mxCell id="LyLU5Vvw4hms6EyPSJXu-115" value="0..n" style="edgeLabel;html=1;align=center;verticalAlign=middle;resizable=0;points=[];fontFamily=Helvetica;fontSize=11;fontColor=default;labelBackgroundColor=default;" vertex="1" connectable="0" parent="LyLU5Vvw4hms6EyPSJXu-92">
          <mxGeometry x="-0.7643" y="1" relative="1" as="geometry">
            <mxPoint x="8" y="-6" as="offset" />
          </mxGeometry>
        </mxCell>
        <mxCell id="LyLU5Vvw4hms6EyPSJXu-116" value="0..n" style="edgeLabel;html=1;align=center;verticalAlign=middle;resizable=0;points=[];fontFamily=Helvetica;fontSize=11;fontColor=default;labelBackgroundColor=default;" vertex="1" connectable="0" parent="LyLU5Vvw4hms6EyPSJXu-92">
          <mxGeometry x="0.7591" y="3" relative="1" as="geometry">
            <mxPoint x="10" y="-4" as="offset" />
          </mxGeometry>
        </mxCell>
        <mxCell id="LyLU5Vvw4hms6EyPSJXu-61" value="Articolo" style="whiteSpace=wrap;html=1;align=center;fontFamily=Helvetica;fontSize=11;fontColor=default;labelBackgroundColor=default;" vertex="1" parent="1">
          <mxGeometry x="-340" y="-30" width="100" height="40" as="geometry" />
        </mxCell>
        <mxCell id="LyLU5Vvw4hms6EyPSJXu-66" style="edgeStyle=none;shape=connector;rounded=0;orthogonalLoop=1;jettySize=auto;html=1;strokeColor=default;align=center;verticalAlign=middle;fontFamily=Helvetica;fontSize=11;fontColor=default;labelBackgroundColor=default;startFill=0;endArrow=none;" edge="1" parent="1" source="LyLU5Vvw4hms6EyPSJXu-64" target="LyLU5Vvw4hms6EyPSJXu-60">
          <mxGeometry relative="1" as="geometry" />
        </mxCell>
        <mxCell id="LyLU5Vvw4hms6EyPSJXu-64" value="Data uscita" style="ellipse;whiteSpace=wrap;html=1;align=center;fontFamily=Helvetica;fontSize=11;fontColor=default;labelBackgroundColor=default;" vertex="1" parent="1">
          <mxGeometry x="-200" y="-270" width="100" height="40" as="geometry" />
        </mxCell>
        <mxCell id="LyLU5Vvw4hms6EyPSJXu-67" style="edgeStyle=none;shape=connector;rounded=0;orthogonalLoop=1;jettySize=auto;html=1;strokeColor=default;align=center;verticalAlign=middle;fontFamily=Helvetica;fontSize=11;fontColor=default;labelBackgroundColor=default;startFill=0;endArrow=none;" edge="1" parent="1" source="LyLU5Vvw4hms6EyPSJXu-65" target="LyLU5Vvw4hms6EyPSJXu-60">
          <mxGeometry relative="1" as="geometry" />
        </mxCell>
        <mxCell id="LyLU5Vvw4hms6EyPSJXu-65" value="Luogo presentazione" style="ellipse;whiteSpace=wrap;html=1;align=center;fontFamily=Helvetica;fontSize=11;fontColor=default;labelBackgroundColor=default;" vertex="1" parent="1">
          <mxGeometry x="-100" y="-300" width="110" height="40" as="geometry" />
        </mxCell>
        <mxCell id="LyLU5Vvw4hms6EyPSJXu-68" value="Editore" style="ellipse;whiteSpace=wrap;html=1;align=center;fontFamily=Helvetica;fontSize=11;fontColor=default;labelBackgroundColor=default;" vertex="1" parent="1">
          <mxGeometry x="-530" y="-150" width="100" height="40" as="geometry" />
        </mxCell>
        <mxCell id="LyLU5Vvw4hms6EyPSJXu-72" value="" style="edgeStyle=none;shape=connector;rounded=0;orthogonalLoop=1;jettySize=auto;html=1;strokeColor=default;align=center;verticalAlign=middle;fontFamily=Helvetica;fontSize=11;fontColor=default;labelBackgroundColor=default;startFill=0;endArrow=none;" edge="1" parent="1" source="LyLU5Vvw4hms6EyPSJXu-71" target="LyLU5Vvw4hms6EyPSJXu-42">
          <mxGeometry relative="1" as="geometry" />
        </mxCell>
        <mxCell id="LyLU5Vvw4hms6EyPSJXu-71" value="Autore" style="ellipse;shape=doubleEllipse;margin=3;whiteSpace=wrap;html=1;align=center;fontFamily=Helvetica;fontSize=11;fontColor=default;labelBackgroundColor=default;" vertex="1" parent="1">
          <mxGeometry x="-500" y="-240" width="100" height="40" as="geometry" />
        </mxCell>
        <mxCell id="LyLU5Vvw4hms6EyPSJXu-73" value="Formato" style="shape=ext;margin=3;double=1;whiteSpace=wrap;html=1;align=center;fontFamily=Helvetica;fontSize=11;fontColor=default;labelBackgroundColor=default;" vertex="1" parent="1">
          <mxGeometry x="-490" y="-90" width="100" height="40" as="geometry" />
        </mxCell>
        <mxCell id="LyLU5Vvw4hms6EyPSJXu-76" style="edgeStyle=none;shape=connector;rounded=0;orthogonalLoop=1;jettySize=auto;html=1;strokeColor=default;align=center;verticalAlign=middle;fontFamily=Helvetica;fontSize=11;fontColor=default;labelBackgroundColor=default;startFill=0;endArrow=none;" edge="1" parent="1" source="LyLU5Vvw4hms6EyPSJXu-74" target="LyLU5Vvw4hms6EyPSJXu-60">
          <mxGeometry relative="1" as="geometry" />
        </mxCell>
        <mxCell id="LyLU5Vvw4hms6EyPSJXu-74" value="Categoria" style="whiteSpace=wrap;html=1;align=center;fontFamily=Helvetica;fontSize=11;fontColor=default;labelBackgroundColor=default;" vertex="1" parent="1">
          <mxGeometry x="10" y="-200" width="100" height="40" as="geometry" />
        </mxCell>
        <mxCell id="LyLU5Vvw4hms6EyPSJXu-77" style="edgeStyle=none;shape=connector;rounded=0;orthogonalLoop=1;jettySize=auto;html=1;strokeColor=default;align=center;verticalAlign=middle;fontFamily=Helvetica;fontSize=11;fontColor=default;labelBackgroundColor=default;startFill=0;endArrow=none;" edge="1" parent="1" source="LyLU5Vvw4hms6EyPSJXu-75" target="LyLU5Vvw4hms6EyPSJXu-60">
          <mxGeometry relative="1" as="geometry" />
        </mxCell>
        <mxCell id="LyLU5Vvw4hms6EyPSJXu-119" value="2..n" style="edgeLabel;html=1;align=center;verticalAlign=middle;resizable=0;points=[];fontFamily=Helvetica;fontSize=11;fontColor=default;labelBackgroundColor=default;" vertex="1" connectable="0" parent="LyLU5Vvw4hms6EyPSJXu-77">
          <mxGeometry x="0.7288" y="1" relative="1" as="geometry">
            <mxPoint x="11" as="offset" />
          </mxGeometry>
        </mxCell>
        <mxCell id="LyLU5Vvw4hms6EyPSJXu-120" value="0..1" style="edgeLabel;html=1;align=center;verticalAlign=middle;resizable=0;points=[];fontFamily=Helvetica;fontSize=11;fontColor=default;labelBackgroundColor=default;" vertex="1" connectable="0" parent="LyLU5Vvw4hms6EyPSJXu-77">
          <mxGeometry x="-0.7597" relative="1" as="geometry">
            <mxPoint x="11" y="-2" as="offset" />
          </mxGeometry>
        </mxCell>
        <mxCell id="LyLU5Vvw4hms6EyPSJXu-121" value="" style="edgeStyle=none;shape=connector;rounded=0;orthogonalLoop=1;jettySize=auto;html=1;strokeColor=default;align=center;verticalAlign=middle;fontFamily=Helvetica;fontSize=11;fontColor=default;labelBackgroundColor=default;startFill=0;endArrow=none;" edge="1" parent="1" source="LyLU5Vvw4hms6EyPSJXu-75" target="LyLU5Vvw4hms6EyPSJXu-60">
          <mxGeometry relative="1" as="geometry" />
        </mxCell>
        <mxCell id="LyLU5Vvw4hms6EyPSJXu-75" value="Collana" style="whiteSpace=wrap;html=1;align=center;fontFamily=Helvetica;fontSize=11;fontColor=default;labelBackgroundColor=default;" vertex="1" parent="1">
          <mxGeometry x="-200" y="-110" width="100" height="40" as="geometry" />
        </mxCell>
        <mxCell id="LyLU5Vvw4hms6EyPSJXu-85" style="edgeStyle=none;shape=connector;rounded=0;orthogonalLoop=1;jettySize=auto;html=1;strokeColor=default;align=center;verticalAlign=middle;fontFamily=Helvetica;fontSize=11;fontColor=default;labelBackgroundColor=default;startFill=0;endArrow=none;" edge="1" parent="1" source="LyLU5Vvw4hms6EyPSJXu-78" target="LyLU5Vvw4hms6EyPSJXu-74">
          <mxGeometry relative="1" as="geometry" />
        </mxCell>
        <mxCell id="LyLU5Vvw4hms6EyPSJXu-78" value="Tipologia" style="ellipse;whiteSpace=wrap;html=1;align=center;fontFamily=Helvetica;fontSize=11;fontColor=default;labelBackgroundColor=default;" vertex="1" parent="1">
          <mxGeometry x="50" y="-280" width="100" height="40" as="geometry" />
        </mxCell>
        <mxCell id="LyLU5Vvw4hms6EyPSJXu-86" style="edgeStyle=none;shape=connector;rounded=0;orthogonalLoop=1;jettySize=auto;html=1;strokeColor=default;align=center;verticalAlign=middle;fontFamily=Helvetica;fontSize=11;fontColor=default;labelBackgroundColor=default;startFill=0;endArrow=none;" edge="1" parent="1" source="LyLU5Vvw4hms6EyPSJXu-79" target="LyLU5Vvw4hms6EyPSJXu-74">
          <mxGeometry relative="1" as="geometry" />
        </mxCell>
        <mxCell id="LyLU5Vvw4hms6EyPSJXu-79" value="Genere" style="ellipse;whiteSpace=wrap;html=1;align=center;fontFamily=Helvetica;fontSize=11;fontColor=default;labelBackgroundColor=default;" vertex="1" parent="1">
          <mxGeometry x="130" y="-240" width="100" height="40" as="geometry" />
        </mxCell>
        <mxCell id="LyLU5Vvw4hms6EyPSJXu-87" style="edgeStyle=none;shape=connector;rounded=0;orthogonalLoop=1;jettySize=auto;html=1;strokeColor=default;align=center;verticalAlign=middle;fontFamily=Helvetica;fontSize=11;fontColor=default;labelBackgroundColor=default;startFill=0;endArrow=none;" edge="1" parent="1" source="LyLU5Vvw4hms6EyPSJXu-80" target="LyLU5Vvw4hms6EyPSJXu-74">
          <mxGeometry relative="1" as="geometry" />
        </mxCell>
        <mxCell id="LyLU5Vvw4hms6EyPSJXu-80" value="Argomento" style="ellipse;whiteSpace=wrap;html=1;align=center;fontFamily=Helvetica;fontSize=11;fontColor=default;labelBackgroundColor=default;" vertex="1" parent="1">
          <mxGeometry x="150" y="-180" width="100" height="40" as="geometry" />
        </mxCell>
        <mxCell id="LyLU5Vvw4hms6EyPSJXu-84" style="edgeStyle=none;shape=connector;rounded=0;orthogonalLoop=1;jettySize=auto;html=1;strokeColor=default;align=center;verticalAlign=middle;fontFamily=Helvetica;fontSize=11;fontColor=default;labelBackgroundColor=default;startFill=0;endArrow=none;" edge="1" parent="1" source="LyLU5Vvw4hms6EyPSJXu-81" target="LyLU5Vvw4hms6EyPSJXu-75">
          <mxGeometry relative="1" as="geometry" />
        </mxCell>
        <mxCell id="LyLU5Vvw4hms6EyPSJXu-81" value="Nome collana" style="ellipse;whiteSpace=wrap;html=1;align=center;fontFamily=Helvetica;fontSize=11;fontColor=default;labelBackgroundColor=default;" vertex="1" parent="1">
          <mxGeometry x="-60" y="-140" width="100" height="40" as="geometry" />
        </mxCell>
        <mxCell id="LyLU5Vvw4hms6EyPSJXu-83" style="edgeStyle=none;shape=connector;rounded=0;orthogonalLoop=1;jettySize=auto;html=1;strokeColor=default;align=center;verticalAlign=middle;fontFamily=Helvetica;fontSize=11;fontColor=default;labelBackgroundColor=default;startFill=0;endArrow=none;" edge="1" parent="1" source="LyLU5Vvw4hms6EyPSJXu-82" target="LyLU5Vvw4hms6EyPSJXu-75">
          <mxGeometry relative="1" as="geometry" />
        </mxCell>
        <mxCell id="LyLU5Vvw4hms6EyPSJXu-82" value="Numero collana" style="ellipse;whiteSpace=wrap;html=1;align=center;fontFamily=Helvetica;fontSize=11;fontColor=default;labelBackgroundColor=default;" vertex="1" parent="1">
          <mxGeometry x="-180" y="-50" width="100" height="40" as="geometry" />
        </mxCell>
        <mxCell id="LyLU5Vvw4hms6EyPSJXu-89" value="Conferenza" style="shape=ext;margin=3;double=1;whiteSpace=wrap;html=1;align=center;fontFamily=Helvetica;fontSize=11;fontColor=default;labelBackgroundColor=default;" vertex="1" parent="1">
          <mxGeometry x="-330" y="100" width="100" height="40" as="geometry" />
        </mxCell>
        <mxCell id="LyLU5Vvw4hms6EyPSJXu-109" style="edgeStyle=none;shape=connector;rounded=0;orthogonalLoop=1;jettySize=auto;html=1;strokeColor=default;align=center;verticalAlign=middle;fontFamily=Helvetica;fontSize=11;fontColor=default;labelBackgroundColor=default;startFill=0;endArrow=none;" edge="1" parent="1" source="LyLU5Vvw4hms6EyPSJXu-90" target="LyLU5Vvw4hms6EyPSJXu-94">
          <mxGeometry relative="1" as="geometry" />
        </mxCell>
        <mxCell id="LyLU5Vvw4hms6EyPSJXu-110" style="edgeStyle=none;shape=connector;rounded=0;orthogonalLoop=1;jettySize=auto;html=1;strokeColor=default;align=center;verticalAlign=middle;fontFamily=Helvetica;fontSize=11;fontColor=default;labelBackgroundColor=default;startFill=0;endArrow=none;" edge="1" parent="1" source="LyLU5Vvw4hms6EyPSJXu-90" target="LyLU5Vvw4hms6EyPSJXu-97">
          <mxGeometry relative="1" as="geometry" />
        </mxCell>
        <mxCell id="LyLU5Vvw4hms6EyPSJXu-111" style="edgeStyle=none;shape=connector;rounded=0;orthogonalLoop=1;jettySize=auto;html=1;strokeColor=default;align=center;verticalAlign=middle;fontFamily=Helvetica;fontSize=11;fontColor=default;labelBackgroundColor=default;startFill=0;endArrow=none;" edge="1" parent="1" source="LyLU5Vvw4hms6EyPSJXu-90" target="LyLU5Vvw4hms6EyPSJXu-95">
          <mxGeometry relative="1" as="geometry" />
        </mxCell>
        <mxCell id="LyLU5Vvw4hms6EyPSJXu-112" style="edgeStyle=none;shape=connector;rounded=0;orthogonalLoop=1;jettySize=auto;html=1;strokeColor=default;align=center;verticalAlign=middle;fontFamily=Helvetica;fontSize=11;fontColor=default;labelBackgroundColor=default;startFill=0;endArrow=none;" edge="1" parent="1" source="LyLU5Vvw4hms6EyPSJXu-90" target="LyLU5Vvw4hms6EyPSJXu-96">
          <mxGeometry relative="1" as="geometry" />
        </mxCell>
        <mxCell id="LyLU5Vvw4hms6EyPSJXu-90" value="Rivista" style="shape=ext;margin=3;double=1;whiteSpace=wrap;html=1;align=center;fontFamily=Helvetica;fontSize=11;fontColor=default;labelBackgroundColor=default;" vertex="1" parent="1">
          <mxGeometry x="-100" y="50" width="100" height="40" as="geometry" />
        </mxCell>
        <mxCell id="LyLU5Vvw4hms6EyPSJXu-108" style="edgeStyle=none;shape=connector;rounded=0;orthogonalLoop=1;jettySize=auto;html=1;strokeColor=default;align=center;verticalAlign=middle;fontFamily=Helvetica;fontSize=11;fontColor=default;labelBackgroundColor=default;startFill=0;endArrow=none;" edge="1" parent="1" source="LyLU5Vvw4hms6EyPSJXu-93" target="LyLU5Vvw4hms6EyPSJXu-89">
          <mxGeometry relative="1" as="geometry" />
        </mxCell>
        <mxCell id="LyLU5Vvw4hms6EyPSJXu-93" value="Luogo" style="ellipse;whiteSpace=wrap;html=1;align=center;fontFamily=Helvetica;fontSize=11;fontColor=default;labelBackgroundColor=default;" vertex="1" parent="1">
          <mxGeometry x="-180" y="120" width="100" height="40" as="geometry" />
        </mxCell>
        <mxCell id="LyLU5Vvw4hms6EyPSJXu-94" value="Responsabile" style="ellipse;whiteSpace=wrap;html=1;align=center;fontFamily=Helvetica;fontSize=11;fontColor=default;labelBackgroundColor=default;" vertex="1" parent="1">
          <mxGeometry x="-60" y="130" width="100" height="40" as="geometry" />
        </mxCell>
        <mxCell id="LyLU5Vvw4hms6EyPSJXu-95" value="Argomento" style="ellipse;whiteSpace=wrap;html=1;align=center;fontFamily=Helvetica;fontSize=11;fontColor=default;labelBackgroundColor=default;" vertex="1" parent="1">
          <mxGeometry x="40" y="10" width="100" height="40" as="geometry" />
        </mxCell>
        <mxCell id="LyLU5Vvw4hms6EyPSJXu-96" value="Nome" style="ellipse;whiteSpace=wrap;html=1;align=center;fontFamily=Helvetica;fontSize=11;fontColor=default;labelBackgroundColor=default;" vertex="1" parent="1">
          <mxGeometry x="-50" y="-30" width="100" height="40" as="geometry" />
        </mxCell>
        <mxCell id="LyLU5Vvw4hms6EyPSJXu-97" value="Anno di pubblicazione" style="ellipse;whiteSpace=wrap;html=1;align=center;fontFamily=Helvetica;fontSize=11;fontColor=default;labelBackgroundColor=default;" vertex="1" parent="1">
          <mxGeometry x="30" y="80" width="120" height="50" as="geometry" />
        </mxCell>
        <mxCell id="LyLU5Vvw4hms6EyPSJXu-107" style="edgeStyle=none;shape=connector;rounded=0;orthogonalLoop=1;jettySize=auto;html=1;strokeColor=default;align=center;verticalAlign=middle;fontFamily=Helvetica;fontSize=11;fontColor=default;labelBackgroundColor=default;startFill=0;endArrow=none;" edge="1" parent="1" source="LyLU5Vvw4hms6EyPSJXu-100" target="LyLU5Vvw4hms6EyPSJXu-89">
          <mxGeometry relative="1" as="geometry" />
        </mxCell>
        <mxCell id="LyLU5Vvw4hms6EyPSJXu-100" value="Data di inizio" style="ellipse;whiteSpace=wrap;html=1;align=center;fontFamily=Helvetica;fontSize=11;fontColor=default;labelBackgroundColor=default;" vertex="1" parent="1">
          <mxGeometry x="-210" y="180" width="100" height="40" as="geometry" />
        </mxCell>
        <mxCell id="LyLU5Vvw4hms6EyPSJXu-106" style="edgeStyle=none;shape=connector;rounded=0;orthogonalLoop=1;jettySize=auto;html=1;strokeColor=default;align=center;verticalAlign=middle;fontFamily=Helvetica;fontSize=11;fontColor=default;labelBackgroundColor=default;startFill=0;endArrow=none;" edge="1" parent="1" source="LyLU5Vvw4hms6EyPSJXu-101" target="LyLU5Vvw4hms6EyPSJXu-89">
          <mxGeometry relative="1" as="geometry" />
        </mxCell>
        <mxCell id="LyLU5Vvw4hms6EyPSJXu-101" value="Data di fine" style="ellipse;whiteSpace=wrap;html=1;align=center;fontFamily=Helvetica;fontSize=11;fontColor=default;labelBackgroundColor=default;" vertex="1" parent="1">
          <mxGeometry x="-330" y="200" width="100" height="40" as="geometry" />
        </mxCell>
        <mxCell id="LyLU5Vvw4hms6EyPSJXu-105" style="edgeStyle=none;shape=connector;rounded=0;orthogonalLoop=1;jettySize=auto;html=1;strokeColor=default;align=center;verticalAlign=middle;fontFamily=Helvetica;fontSize=11;fontColor=default;labelBackgroundColor=default;startFill=0;endArrow=none;" edge="1" parent="1" source="LyLU5Vvw4hms6EyPSJXu-102" target="LyLU5Vvw4hms6EyPSJXu-89">
          <mxGeometry relative="1" as="geometry">
            <mxPoint x="-320" y="180" as="targetPoint" />
          </mxGeometry>
        </mxCell>
        <mxCell id="LyLU5Vvw4hms6EyPSJXu-102" value="Struttura" style="ellipse;whiteSpace=wrap;html=1;align=center;fontFamily=Helvetica;fontSize=11;fontColor=default;labelBackgroundColor=default;" vertex="1" parent="1">
          <mxGeometry x="-445" y="180" width="100" height="40" as="geometry" />
        </mxCell>
        <mxCell id="LyLU5Vvw4hms6EyPSJXu-104" style="edgeStyle=none;shape=connector;rounded=0;orthogonalLoop=1;jettySize=auto;html=1;strokeColor=default;align=center;verticalAlign=middle;fontFamily=Helvetica;fontSize=11;fontColor=default;labelBackgroundColor=default;startFill=0;endArrow=none;" edge="1" parent="1" source="LyLU5Vvw4hms6EyPSJXu-103" target="LyLU5Vvw4hms6EyPSJXu-89">
          <mxGeometry relative="1" as="geometry" />
        </mxCell>
        <mxCell id="LyLU5Vvw4hms6EyPSJXu-103" value="Responsabile" style="ellipse;whiteSpace=wrap;html=1;align=center;fontFamily=Helvetica;fontSize=11;fontColor=default;labelBackgroundColor=default;" vertex="1" parent="1">
          <mxGeometry x="-480" y="120" width="100" height="40" as="geometry" />
        </mxCell>
      </root>
    </mxGraphModel>
  </diagram>
</mxfile>
